<mxfile host="app.diagrams.net" modified="2023-07-10T00:08:30.834Z" agent="Mozilla/5.0 (Windows NT 10.0; Win64; x64) AppleWebKit/537.36 (KHTML, like Gecko) Chrome/113.0.0.0 Safari/537.36 OPR/99.0.0.0" etag="-tluKNz-vDls1AJUSThQ" version="21.6.1" type="device">
  <diagram name="Página-1" id="Pu1Kgi4E0d7dGEgmAHZI">
    <mxGraphModel dx="1304" dy="894" grid="1" gridSize="10" guides="1" tooltips="1" connect="1" arrows="1" fold="1" page="1" pageScale="1" pageWidth="1169" pageHeight="827" math="0" shadow="0">
      <root>
        <mxCell id="0" />
        <mxCell id="1" parent="0" />
        <mxCell id="FZNC32-L_sY_WPYx4oRZ-14" value="" style="rounded=1;whiteSpace=wrap;html=1;arcSize=5;" parent="1" vertex="1">
          <mxGeometry x="312.1405377720871" y="151.26315789473682" width="826.8294622279129" height="404.03508771929825" as="geometry" />
        </mxCell>
        <mxCell id="FZNC32-L_sY_WPYx4oRZ-4" value="&lt;i&gt;DepartamentoController.java&lt;/i&gt;&lt;br&gt;&lt;br&gt;&lt;br&gt;&lt;br&gt;&lt;br&gt;&lt;br&gt;&lt;br&gt;&lt;br&gt;&lt;br&gt;Controller" style="rounded=1;whiteSpace=wrap;html=1;fillColor=#dae8fc;strokeColor=#6c8ebf;" parent="1" vertex="1">
          <mxGeometry x="326.570371318822" y="165.69298245614033" width="249.63612035851475" height="375.17543859649123" as="geometry" />
        </mxCell>
        <mxCell id="FZNC32-L_sY_WPYx4oRZ-1" value="endpoint" style="rounded=0;whiteSpace=wrap;html=1;" parent="1" vertex="1">
          <mxGeometry x="244.3203201024328" y="276.8026315789474" width="115.43866837387965" height="43.28947368421053" as="geometry" />
        </mxCell>
        <mxCell id="FZNC32-L_sY_WPYx4oRZ-2" value="endpoint" style="rounded=0;whiteSpace=wrap;html=1;" parent="1" vertex="1">
          <mxGeometry x="244.3203201024328" y="334.5219298245614" width="115.43866837387965" height="43.28947368421053" as="geometry" />
        </mxCell>
        <mxCell id="FZNC32-L_sY_WPYx4oRZ-3" value="endpoint" style="rounded=0;whiteSpace=wrap;html=1;" parent="1" vertex="1">
          <mxGeometry x="244.3203201024328" y="392.24122807017545" width="115.43866837387965" height="43.28947368421053" as="geometry" />
        </mxCell>
        <mxCell id="FZNC32-L_sY_WPYx4oRZ-5" value="&lt;br&gt;&lt;br&gt;&lt;br&gt;&lt;br&gt;&lt;br&gt;&lt;br&gt;&lt;br&gt;&lt;br&gt;&lt;br&gt;&lt;br&gt;&lt;br&gt;&lt;br&gt;&lt;br&gt;&lt;br&gt;&lt;br&gt;&lt;br&gt;&lt;br&gt;&lt;br&gt;&lt;br&gt;&lt;br&gt;&lt;br&gt;&lt;br&gt;Services" style="rounded=1;whiteSpace=wrap;html=1;" parent="1" vertex="1">
          <mxGeometry x="662.7854929577466" y="172.90789473684208" width="173.15800256081948" height="367.9605263157895" as="geometry" />
        </mxCell>
        <mxCell id="FZNC32-L_sY_WPYx4oRZ-23" style="edgeStyle=orthogonalEdgeStyle;rounded=0;orthogonalLoop=1;jettySize=auto;html=1;entryX=0;entryY=0.5;entryDx=0;entryDy=0;startArrow=classic;startFill=1;" parent="1" source="FZNC32-L_sY_WPYx4oRZ-4" target="FZNC32-L_sY_WPYx4oRZ-5" edge="1">
          <mxGeometry relative="1" as="geometry">
            <Array as="points">
              <mxPoint x="619.4959923175417" y="357.609649122807" />
            </Array>
          </mxGeometry>
        </mxCell>
        <mxCell id="FZNC32-L_sY_WPYx4oRZ-6" value="&lt;font style=&quot;font-size: 11px;&quot;&gt;Interface&lt;/font&gt;" style="shape=dataStorage;whiteSpace=wrap;html=1;fixedSize=1;fillColor=#d5e8d4;strokeColor=#82b366;opacity=50;align=center;" parent="1" vertex="1">
          <mxGeometry x="720.5048271446864" y="382.140350877193" width="101.0088348271447" height="72.14912280701753" as="geometry" />
        </mxCell>
        <mxCell id="FZNC32-L_sY_WPYx4oRZ-7" value="&lt;font style=&quot;font-size: 11px;&quot;&gt;Service&lt;/font&gt;" style="shape=dataStorage;whiteSpace=wrap;html=1;fixedSize=1;fillColor=#d5e8d4;strokeColor=#82b366;horizontal=0;verticalAlign=middle;" parent="1" vertex="1">
          <mxGeometry x="677.2153265044815" y="382.140350877193" width="57.719334186939825" height="72.14912280701753" as="geometry" />
        </mxCell>
        <mxCell id="FZNC32-L_sY_WPYx4oRZ-8" value="&lt;font style=&quot;font-size: 11px;&quot;&gt;Interface&lt;/font&gt;" style="shape=dataStorage;whiteSpace=wrap;html=1;fixedSize=1;fillColor=#d5e8d4;strokeColor=#82b366;opacity=50;align=center;" parent="1" vertex="1">
          <mxGeometry x="720.5048271446864" y="295.56140350877195" width="101.0088348271447" height="72.14912280701753" as="geometry" />
        </mxCell>
        <mxCell id="FZNC32-L_sY_WPYx4oRZ-9" value="&lt;font style=&quot;font-size: 11px;&quot;&gt;Service&lt;/font&gt;" style="shape=dataStorage;whiteSpace=wrap;html=1;fixedSize=1;fillColor=#d5e8d4;strokeColor=#82b366;fontSize=11;horizontal=0;verticalAlign=middle;" parent="1" vertex="1">
          <mxGeometry x="677.2153265044815" y="295.56140350877195" width="57.719334186939825" height="72.14912280701753" as="geometry" />
        </mxCell>
        <mxCell id="FZNC32-L_sY_WPYx4oRZ-10" value="&lt;font style=&quot;font-size: 11px;&quot;&gt;Interface&lt;/font&gt;" style="shape=dataStorage;whiteSpace=wrap;html=1;fixedSize=1;fillColor=#d5e8d4;strokeColor=#82b366;opacity=50;align=center;" parent="1" vertex="1">
          <mxGeometry x="720.5048271446864" y="208.98245614035088" width="101.0088348271447" height="72.14912280701753" as="geometry" />
        </mxCell>
        <mxCell id="FZNC32-L_sY_WPYx4oRZ-11" value="Service" style="shape=dataStorage;whiteSpace=wrap;html=1;fixedSize=1;fillColor=#d5e8d4;strokeColor=#82b366;horizontal=0;align=center;verticalAlign=middle;fontSize=10;" parent="1" vertex="1">
          <mxGeometry x="677.2153265044815" y="208.98245614035088" width="57.719334186939825" height="72.14912280701753" as="geometry" />
        </mxCell>
        <mxCell id="FZNC32-L_sY_WPYx4oRZ-19" style="edgeStyle=orthogonalEdgeStyle;rounded=0;orthogonalLoop=1;jettySize=auto;html=1;entryX=1.007;entryY=0.206;entryDx=0;entryDy=0;entryPerimeter=0;startArrow=classic;startFill=1;" parent="1" edge="1">
          <mxGeometry relative="1" as="geometry">
            <mxPoint x="922.5224967989757" y="250.14181286549697" as="sourcePoint" />
            <mxPoint x="837.1556015364916" y="249.93429824561403" as="targetPoint" />
          </mxGeometry>
        </mxCell>
        <mxCell id="FZNC32-L_sY_WPYx4oRZ-12" value="Model&lt;br&gt;&lt;br&gt;&lt;i&gt;Departamento.java&lt;/i&gt;" style="rounded=0;whiteSpace=wrap;html=1;fillColor=#dae8fc;strokeColor=#6c8ebf;" parent="1" vertex="1">
          <mxGeometry x="922.5224967989757" y="172.90789473684208" width="202.0176696542894" height="137.08333333333331" as="geometry" />
        </mxCell>
        <mxCell id="FZNC32-L_sY_WPYx4oRZ-22" style="edgeStyle=orthogonalEdgeStyle;rounded=0;orthogonalLoop=1;jettySize=auto;html=1;exitX=0;exitY=0.5;exitDx=0;exitDy=0;startArrow=classic;startFill=1;endArrow=none;endFill=0;" parent="1" edge="1">
          <mxGeometry relative="1" as="geometry">
            <mxPoint x="879.2329961587709" y="250.82894736842104" as="targetPoint" />
            <mxPoint x="922.5224967989757" y="434.8092105263158" as="sourcePoint" />
          </mxGeometry>
        </mxCell>
        <mxCell id="FZNC32-L_sY_WPYx4oRZ-13" value="Repositório&lt;br&gt;(Repo / DAO)&lt;br&gt;&lt;br&gt;&lt;i&gt;DepartamentoDAO.java&lt;/i&gt;" style="rounded=0;whiteSpace=wrap;html=1;fillColor=#dae8fc;strokeColor=#6c8ebf;" parent="1" vertex="1">
          <mxGeometry x="922.5224967989757" y="402.34210526315786" width="202.0176696542894" height="137.08333333333331" as="geometry" />
        </mxCell>
        <mxCell id="FZNC32-L_sY_WPYx4oRZ-20" style="edgeStyle=orthogonalEdgeStyle;rounded=0;orthogonalLoop=1;jettySize=auto;html=1;entryX=0.5;entryY=0;entryDx=0;entryDy=0;" parent="1" source="FZNC32-L_sY_WPYx4oRZ-12" target="FZNC32-L_sY_WPYx4oRZ-13" edge="1">
          <mxGeometry relative="1" as="geometry" />
        </mxCell>
        <mxCell id="FZNC32-L_sY_WPYx4oRZ-15" value="MySQL&lt;br&gt;&lt;br&gt;&lt;i&gt;ecommerce.mysql&lt;/i&gt;" style="shape=cylinder3;whiteSpace=wrap;html=1;boundedLbl=1;backgroundOutline=1;size=15;fillColor=#ffe6cc;strokeColor=#d79b00;" parent="1" vertex="1">
          <mxGeometry x="944.1672471190782" y="595.7017543859649" width="158.72816901408453" height="144.29824561403507" as="geometry" />
        </mxCell>
        <mxCell id="FZNC32-L_sY_WPYx4oRZ-17" style="edgeStyle=orthogonalEdgeStyle;rounded=0;orthogonalLoop=1;jettySize=auto;html=1;exitX=0.5;exitY=1;exitDx=0;exitDy=0;entryX=0.5;entryY=0;entryDx=0;entryDy=0;entryPerimeter=0;startArrow=classic;startFill=1;" parent="1" source="FZNC32-L_sY_WPYx4oRZ-13" target="FZNC32-L_sY_WPYx4oRZ-15" edge="1">
          <mxGeometry relative="1" as="geometry" />
        </mxCell>
        <mxCell id="FZNC32-L_sY_WPYx4oRZ-24" value="" style="shape=image;html=1;verticalAlign=top;verticalLabelPosition=bottom;labelBackgroundColor=#ffffff;imageAspect=0;aspect=fixed;image=https://cdn2.iconfinder.com/data/icons/browsers/Firefox.png" parent="1" vertex="1">
          <mxGeometry x="12" y="312.8771929824561" width="86.57894736842105" height="86.57894736842105" as="geometry" />
        </mxCell>
        <mxCell id="FZNC32-L_sY_WPYx4oRZ-25" value="HTTPS" style="shape=flexArrow;endArrow=classic;startArrow=classic;html=1;rounded=0;" parent="1" edge="1">
          <mxGeometry width="100" height="100" relative="1" as="geometry">
            <mxPoint x="98.57900128040974" y="355.5606140350878" as="sourcePoint" />
            <mxPoint x="242.8773367477593" y="355.5606140350878" as="targetPoint" />
          </mxGeometry>
        </mxCell>
        <mxCell id="FZNC32-L_sY_WPYx4oRZ-26" value="&lt;i&gt;IDepartamentoService.java&lt;/i&gt;" style="shape=callout;whiteSpace=wrap;html=1;perimeter=calloutPerimeter;position2=0;size=60;position=0;base=9;" parent="1" vertex="1">
          <mxGeometry x="795.54" y="82" width="230.88" height="118" as="geometry" />
        </mxCell>
        <mxCell id="FZNC32-L_sY_WPYx4oRZ-30" value="&lt;i&gt;DepartamentoServiceImpl.java&lt;/i&gt;" style="shape=callout;whiteSpace=wrap;html=1;perimeter=calloutPerimeter;position2=0;size=60;position=0;base=9;flipH=1;" parent="1" vertex="1">
          <mxGeometry x="475.2" y="82" width="245.31" height="118" as="geometry" />
        </mxCell>
      </root>
    </mxGraphModel>
  </diagram>
</mxfile>
